#!OML:ASF F:\VICON\USERDATA\INSTALL\rory3\rory3.ASF
:FULLY-SPECIFIED
:DEGREES
555
root -3.95042 15.3695 22.8315 571.553 -18.6549 180.681
lowerback 6.25597 5.84311 -5.9289
upperback -6.01775 5.76821 -9.09427
thorax -9.6665 2.54533 -7.34504
lowerneck -8.30203 10.6031 4.31645
upperneck -4.38273 13.5782 -12.5091
head 1.32437 6.51629 -4.24321
rclavicle 8.42847e-014 7.95139e-014
rhumerus 127.242 -41.8783 206.5
rradius 9.70197
rwrist 99.9365
rhand -12.7853 10.8644
rfingers 7.12502
rthumb 13.3002 -18.6912
lclavicle 8.42847e-014 7.95139e-014
lhumerus 9.97652 35.7777 44.6775
lradius 19.1844
lwrist -28.7783
lhand -7.57952 25.8532
lfingers 7.12502
lthumb 18.3134 55.0112
rfemur 1.3508 4.03247 30.5876
rtibia -3.18055e-015
rfoot -45.0131 -44.9305
rtoes 1.73631
lfemur -84.4427 16.7156 -47.4645
ltibia 55.9563
lfoot -25.771 27.2138
ltoes 18.4245
556
root -3.96138 15.3689 22.8257 571.542 -18.8153 180.528
lowerback 5.03087 5.344 -7.04784
upperback -5.02781 5.40716 -8.08234
thorax -8.07963 2.54096 -5.31569
lowerneck -9.18993 11.0232 3.06513
upperneck -5.06229 14.1131 -12.9608
head 1.23648 6.75331 -4.10786
rclavicle -2.94201e-014 5.40694e-014
rhumerus 125.27 -40.539 207.393
rradius 9.45243
rwrist 100.646
rhand -12.4446 10.3896
rfingers 7.12502
rthumb 13.6285 -19.1443
lclavicle -2.94201e-014 5.40694e-014
lhumerus 9.53615 39.5912 47.2611
lradius 18.9085
lwrist -30.8113
lhand -7.17997 25.1135
lfingers 7.12502
lthumb 18.6977 54.2348
rfemur 1.45686 3.79648 30.5174
rtibia -3.18055e-015
rfoot -45.1868 -44.7237
rtoes 1.97888
lfemur -84.1946 16.5006 -47.4143
ltibia 55.9483
lfoot -25.9154 27.1796
ltoes 18.6644
557
root -3.97057 15.3672 22.8204 571.491 -19.023 180.533
lowerback 4.47575 4.68394 -7.66938
upperback -4.33977 4.72722 -7.27405
thorax -7.14689 2.28934 -3.906
lowerneck -10.6768 11.6009 1.83735
upperneck -5.16607 14.9499 -12.94
head 1.41442 7.11229 -3.74616
rclavicle -3.4191e-014 -1.90833e-014
rhumerus 122.776 -39.4491 207.838
rradius 9.29519
rwrist 100.952
rhand -12.1373 10.229
rfingers 7.12502
rthumb 13.9247 -19.2848
lclavicle -3.4191e-014 -1.90833e-014
lhumerus 8.24797 42.2858 48.4105
lradius 19.0216
lwrist -31.7072
lhand -6.96737 24.8221
lfingers 7.12502
lthumb 18.9022 53.9237
rfemur 1.55055 3.6009 30.6122
rtibia 1.59028e-014
rfoot -45.5655 -44.3163
rtoes 2.42293
lfemur -83.9972 16.269 -47.1278
ltibia 55.9555
lfoot -26.2865 27.0802
ltoes 19.6276
558
root -3.97803 15.3671 22.8166 571.529 -19.0095 180.436
lowerback 4.73407 5.00234 -7.38839
upperback -4.44528 5.06765 -7.76638
thorax -7.34147 2.4145 -4.65984
lowerneck -10.2635 11.3016 2.74391
upperneck -5.18355 14.4759 -12.9169
head 1.37929 6.89001 -3.95328
rclavicle 6.52014e-014 3.81667e-014
rhumerus 123.1 -41.1749 205.956
rradius 9.96838
rwrist 101
rhand -11.7375 10.7314
rfingers 7.12502
rthumb 14.3099 -18.7554
lclavicle 6.52014e-014 3.81667e-014
lhumerus 8.77829 41.347 50.1458
lradius 18.7869
lwrist -32.1847
lhand -7.03841 24.3105
lfingers 7.12502
lthumb 18.8339 53.4187
rfemur 1.55689 3.56322 30.491
rtibia -9.54166e-015
rfoot -45.5837 -44.2166
rtoes 2.27636
lfemur -83.9046 16.1727 -47.1702
ltibia 55.9269
lfoot -26.2894 27.1326
ltoes 19.3415
559
root -3.98842 15.3659 22.8147 571.622 -18.9326 180.289
lowerback 4.43478 4.8555 -8.13764
upperback -4.23371 4.92207 -7.3365
thorax -7.05052 2.39978 -3.73006
lowerneck -10.1814 11.438 2.76888
upperneck -5.50035 14.6086 -13.4462
head 1.32443 6.95111 -4.14123
rclavicle 1.10524e-013 -5.40694e-014
rhumerus 121.756 -41.5201 205.975
rradius 9.25169
rwrist 100.955
rhand -12.3356 10.298
rfingers 7.12502
rthumb 13.7336 -19.2288
lclavicle 1.10524e-013 -5.40694e-014
lhumerus 7.61555 41.3318 51.3482
lradius 18.957
lwrist -31.7735
lhand -6.91027 23.8861
lfingers 7.12502
lthumb 18.9571 52.9823
rfemur 1.52362 3.56246 30.2781
rtibia 6.36111e-015
rfoot -45.8897 -44.0155
rtoes 2.4898
lfemur -83.8538 16.0513 -47.3008
ltibia 55.8936
lfoot -26.3514 27.3018
ltoes 18.8894
560
root -4.00182 15.3681 22.8147 571.701 -18.9639 180.139
lowerback 4.54058 4.98033 -8.0762
upperback -4.24811 5.05741 -7.50295
thorax -7.10809 2.45428 -3.96848
lowerneck -10.1119 11.1789 3.01916
upperneck -5.4887 14.2384 -13.4216
head 1.30522 6.76652 -4.20987
rclavicle -1.00983e-013 -6.36111e-014
rhumerus 121.751 -42.754 204.816
rradius 8.39016
rwrist 100.764
rhand -13.1455 9.99234
rfingers 7.12502
rthumb 12.9529 -19.5856
lclavicle -1.00983e-013 -6.36111e-014
lhumerus 6.9245 39.0647 52.3324
lradius 19.2403
lwrist -30.2018
lhand -6.75706 24.3927
lfingers 7.12502
lthumb 19.1045 53.4744
rfemur 1.49565 3.46524 30.1142
rtibia -1.90833e-014
rfoot -45.8287 -44.2343
rtoes 2.18375
lfemur -83.7443 15.8622 -47.409
ltibia 55.8387
lfoot -26.1892 27.5478
ltoes 18.0287
561
root -4.0131 15.3655 22.8151 571.814 -19.1679 180.216
lowerback 4.21391 4.99559 -8.11762
upperback -4.05207 5.18135 -7.29245
thorax -6.72721 2.53165 -3.68577
lowerneck -10.2376 11.0135 2.9726
upperneck -5.62823 13.9876 -13.6477
head 1.27732 6.63043 -4.29756
rclavicle -7.95139e-015 1.22451e-013
rhumerus 121.158 -43.5213 204.172
rradius 8.39995
rwrist 100.611
rhand -13.5585 10.1051
rfingers 7.12502
rthumb 12.5548 -19.4977
lclavicle -7.95139e-015 1.22451e-013
lhumerus 6.66723 38.4262 54.132
lradius 19.1567
lwrist -29.7854
lhand -6.99641 25.0211
lfingers 7.12502
lthumb 18.8743 54.1254
rfemur 1.36191 3.3517 30.2443
rtibia -3.49861e-014
rfoot -45.8361 -44.1753
rtoes 2.51532
lfemur -83.8072 15.6111 -47.221
ltibia 55.8472
lfoot -26.2864 27.5315
ltoes 18.3591
